#!OML:ASF E:\Steps\Project 1\Capture day 1\Session 2\Subject.ASF
:FULLY-SPECIFIED
:DEGREES
392
root 9.7358 15.0021 8.92537 -158.188 0.562565 178.139
lowerback -9.02042 -3.14275 -7.30168
upperback 1.65206 -3.14762 -1.38296
thorax 7.15497 -1.75983 2.1579
lowerneck -2.72044 -0.301821 -4.52864
upperneck 6.19713 -0.347988 4.11468
head 2.4757 -0.127025 2.11382
rclavicle 1.15295e-014 2.78299e-014
rhumerus -76.5204 -1.74516 -71.8268
rradius 53.4897
rwrist -9.5622
rhand -7.32867 -54.8337
rfingers 7.12502
rthumb 18.5547 -83.9688
lclavicle 1.15295e-014 2.78299e-014
lhumerus -75.4666 -10.4384 80.8233
lradius 60.0841
lwrist 9.10329
lhand -39.7793 -17.589
lfingers 7.12502
lthumb -12.755 12.0014
rfemur -64.4805 1.48845 18.7545
rtibia 42.7444
rfoot -5.76632 1.78499
rtoes -32.3436
lfemur -66.344 -0.804037 -17.6977
ltibia 45.6102
lfoot 15.1155 0.549879
ltoes -3.9663
393
root 9.74298 14.6555 8.64438 -159.821 0.26387 178.422
lowerback -7.88063 -2.94949 -7.05693
upperback 1.59042 -3.24605 -1.24255
thorax 6.42761 -1.87169 2.20485
lowerneck -2.52831 -0.502459 -3.61188
upperneck 5.75514 -0.62136 3.23019
head 2.28673 -0.273049 1.64216
rclavicle -3.1408e-014 -4.85035e-014
rhumerus -75.1856 -2.86061 -71.5585
rradius 51.5445
rwrist -9.22333
rhand -8.6484 -55.1505
rfingers 7.12502
rthumb 17.2849 -84.4018
lclavicle -3.1408e-014 -4.85035e-014
lhumerus -73.7625 -9.59849 80.4204
lradius 57.9967
lwrist 9.012
lhand -39.7807 -17.8142
lfingers 7.12502
lthumb -12.7564 11.7761
rfemur -64.5289 2.08769 19.5384
rtibia 48.6882
rfoot -11.9233 -1.76132
rtoes -25.358
lfemur -66.7875 -0.874823 -18.1199
ltibia 52.2732
lfoot 12.3293 -0.823651
ltoes 19.8093
394
root 9.75263 14.3185 8.38091 -161.652 -0.139579 178.914
lowerback -6.52384 -2.86183 -6.55824
upperback 1.69381 -3.27963 -1.09989
thorax 5.74387 -1.85448 2.13842
lowerneck -0.962143 -0.54045 -3.57516
upperneck 8.12355 -0.50869 1.73037
head 2.7711 -0.218719 1.16511
rclavicle 6.75868e-015 6.36111e-015
rhumerus -73.1724 -4.26736 -71.4582
rradius 49.0817
rwrist -8.70764
rhand -9.94955 -55.9388
rfingers 7.12502
rthumb 16.0322 -85.2955
lclavicle 6.75868e-015 6.36111e-015
lhumerus -71.4439 -8.64211 79.7886
lradius 55.7382
lwrist 8.14282
lhand -40.2811 -17.8757
lfingers 7.12502
lthumb -13.2388 11.6839
rfemur -64.2692 2.83764 20.2924
rtibia 53.8644
rfoot -14.8506 -3.87292
rtoes -31.1715
lfemur -66.8679 -1.22962 -17.9521
ltibia 57.993
lfoot 7.36424 -1.73132
ltoes 32.7034
395
root 9.75699 14.0075 8.12854 -163.494 -0.405373 179.347
lowerback -5.27425 -2.75579 -6.04563
upperback 1.94701 -3.26462 -1.02219
thorax 5.27049 -1.8248 1.99086
lowerneck -0.147737 -0.74747 -3.06103
upperneck 8.89037 -0.656223 0.520216
head 2.86943 -0.287061 0.683207
rclavicle -2.42517e-014 -4.77083e-015
rhumerus -70.3981 -5.90268 -71.409
rradius 46.011
rwrist -7.77276
rhand -10.9005 -56.7886
rfingers 7.12502
rthumb 15.1163 -86.2166
lclavicle -2.42517e-014 -4.77083e-015
lhumerus -68.5716 -7.66131 79.0818
lradius 53.4399
lwrist 7.11288
lhand -40.9111 -17.0269
lfingers 7.12502
lthumb -13.8459 12.4923
rfemur -64.3058 3.81189 20.7501
rtibia 59.1886
rfoot -18.2659 -5.53748
rtoes -32.2272
lfemur -66.6233 -1.74731 -17.6386
ltibia 62.7406
lfoot 1.87682 -1.91839
ltoes 29.3349
396
root 9.75194 13.7372 7.88787 -165.063 -0.606921 179.902
lowerback -4.38233 -2.57853 -5.19432
upperback 2.25945 -3.13735 -0.993143
thorax 5.03077 -1.73585 1.59513
lowerneck 0.0939932 -1.13393 -2.22183
upperneck 7.96389 -1.21607 -0.0773195
head 2.50904 -0.570028 0.332155
rclavicle -2.78299e-015 2.38542e-015
rhumerus -67.1494 -7.96419 -71.3634
rradius 42.7079
rwrist -6.51036
rhand -11.4101 -57.5012
rfingers 7.12502
rthumb 14.6254 -86.9655
lclavicle -2.78299e-015 2.38542e-015
lhumerus -65.3784 -7.00368 78.5191
lradius 51.3971
lwrist 6.51597
lhand -41.2635 -15.5598
lfingers 7.12502
lthumb -14.1856 13.9359
rfemur -64.4664 4.63529 21.3892
rtibia 64.0725
rfoot -21.1133 -6.98418
rtoes -32.7879
lfemur -66.4696 -2.42331 -16.996
ltibia 66.9194
lfoot -4.34768 -1.60481
ltoes 23.2984
397
root 9.74284 13.5191 7.65969 -165.882 -0.550472 179.205
lowerback -4.16393 -2.4871 -5.66351
upperback 2.35937 -3.00592 -1.25164
thorax 5.01418 -1.69157 1.60628
lowerneck 0.618731 -1.4944 -1.45671
upperneck 6.97272 -1.73494 -0.642956
head 2.07789 -0.829969 0.0186679
rclavicle -8.34896e-015 1.19271e-014
rhumerus -63.6203 -10.175 -71.2182
rradius 39.2418
rwrist -4.87811
rhand -11.3944 -57.9179
rfingers 7.12502
rthumb 14.6405 -87.381
lclavicle -8.34896e-015 1.19271e-014
lhumerus -62.1666 -6.28022 78.1199
lradius 49.5218
lwrist 6.05424
lhand -41.3787 -14.3642
lfingers 7.12502
lthumb -14.2966 15.1236
rfemur -65.5421 4.98145 20.583
rtibia 68.7981
rfoot -23.247 -7.79765
rtoes -31.5352
lfemur -66.6687 -3.46253 -17.6166
ltibia 70.566
lfoot -9.43233 -0.980133
ltoes 18.4038
398
root 9.73826 13.3181 7.44242 -166.869 -0.657952 178.89
lowerback -3.72928 -2.50292 -5.84574
upperback 2.41729 -3.05235 -1.32422
thorax 4.8372 -1.721 1.6461
lowerneck 1.47448 -1.82898 -0.722783
upperneck 5.91229 -2.21 -1.19188
head 1.57169 -1.06339 -0.267007
rclavicle 2.48481e-014 -3.49861e-014
rhumerus -60.1503 -12.1971 -70.9826
rradius 35.8097
rwrist -2.75882
rhand -11.5896 -58.175
rfingers 7.12502
rthumb 14.4525 -87.6517
lclavicle 2.48481e-014 -3.49861e-014
lhumerus -59.0741 -5.15924 77.783
lradius 47.5143
lwrist 5.69111
lhand -41.4095 -13.9016
lfingers 7.12502
lthumb -14.3263 15.5842
rfemur -66.0714 5.30648 20.2592
rtibia 72.9929
rfoot -25.3838 -7.80963
rtoes -29.2223
lfemur -66.5763 -4.25493 -17.9109
ltibia 74.1323
lfoot -13.4835 -0.260139
ltoes 8.79478
399
root 9.7405 13.1245 7.22841 -167.85 -0.76525 178.755
lowerback -3.44864 -2.56261 -5.88317
upperback 2.47058 -3.15292 -1.36613
thorax 4.74063 -1.77285 1.62624
lowerneck 2.405 -2.11727 -0.0140994
upperneck 4.76122 -2.61993 -1.67372
head 1.03473 -1.26254 -0.513039
rclavicle 1.13307e-014 -2.38542e-015
rhumerus -56.8891 -14.2646 -70.8483
rradius 32.8904
rwrist 0.359985
rhand -11.3293 -58.5665
rfingers 7.12502
rthumb 14.7033 -88.0251
lclavicle 1.13307e-014 -2.38542e-015
lhumerus -56.0524 -4.06629 77.5026
lradius 45.5331
lwrist 5.90778
lhand -41.275 -13.5567
lfingers 7.12502
lthumb -14.1966 15.9382
rfemur -66.2246 5.63856 20.2642
rtibia 76.5552
rfoot -26.9832 -8.20496
rtoes -29.6709
lfemur -66.3935 -4.57253 -18.2039
ltibia 77.5093
lfoot -18.4201 2.16354
ltoes -19.6621
400
root 9.74681 12.9371 7.02039 -168.555 -0.911091 178.789
lowerback -3.52661 -2.61061 -5.76159
upperback 2.5006 -3.21516 -1.36764
thorax 4.81367 -1.8011 1.5471
lowerneck 3.02846 -2.44571 0.779025
upperneck 3.66916 -3.07673 -2.13829
head 0.573174 -1.48687 -0.765285
rclavicle -5.26779e-014 -1.43125e-014
rhumerus -53.6714 -16.5436 -70.845
rradius 30.1313
rwrist 4.06023
rhand -11.3247 -58.5426
rfingers 7.12502
rthumb 14.7076 -88.0009
lclavicle -5.26779e-014 -1.43125e-014
lhumerus -52.8692 -3.23364 77.3769
lradius 43.4263
lwrist 6.0625
lhand -40.9497 -13.4517
lfingers 7.12502
lthumb -13.8831 16.0649
rfemur -66.3658 5.85102 20.5935
rtibia 79.7357
rfoot -28.1068 -9.29992
rtoes -31.8493
lfemur -66.5197 -4.51938 -18.4278
ltibia 80.7606
lfoot -22.4659 14.2588
ltoes -19.0388
401
root 9.75083 12.7627 6.82582 -169.063 -1.02372 178.765
lowerback -3.74358 -2.6438 -5.754
upperback 2.48959 -3.24151 -1.34021
thorax 4.92892 -1.81465 1.5585
lowerneck 4.07252 -2.83925 1.47338
upperneck 2.45345 -3.60442 -2.67691
head 8.50846e-005 -1.74009 -1.01631
rclavicle -1.98785e-014 -7.95139e-016
rhumerus -50.5428 -18.4605 -71.2825
rradius 27.9066
rwrist 7.79209
rhand -11.3236 -58.2192
rfingers 7.12502
rthumb 14.7088 -87.6774
lclavicle -1.98785e-014 -7.95139e-016
lhumerus -49.5313 -2.38261 77.3576
lradius 41.1026
lwrist 5.34906
lhand -40.531 -13.5477
lfingers 7.12502
lthumb -13.4796 15.9961
rfemur -66.4422 5.8707 20.9497
rtibia 82.9611
rfoot -30.7857 6.374
rtoes -32.8194
lfemur -66.7524 -4.36495 -18.7136
ltibia 83.86
lfoot -26.8715 26.0261
ltoes -17.9427
402
root 9.7525 12.6015 6.65131 -169.461 -1.06963 178.74
lowerback -3.96032 -2.63821 -5.78722
upperback 2.48544 -3.21377 -1.26512
thorax 5.05274 -1.80331 1.64662
lowerneck 4.96182 -3.02165 1.36258
upperneck 2.12073 -3.83117 -3.25805
head -0.265136 -1.83425 -1.1603
rclavicle -1.70955e-014 9.54166e-015
rhumerus -47.4702 -19.6721 -72.2596
rradius 26.3437
rwrist 10.9914
rhand -11.5843 -57.7021
rfingers 7.12502
rthumb 14.4575 -87.1784
lclavicle -1.70955e-014 9.54166e-015
lhumerus -46.2323 -1.75745 77.6064
lradius 39.0932
lwrist 4.38105
lhand -39.9756 -13.5286
lfingers 7.12502
lthumb -12.9443 16.0499
rfemur -66.5292 5.77551 21.3478
rtibia 86.033
rfoot -33.4786 22.3439
rtoes -33.1422
lfemur -67.0784 -4.09422 -18.963
ltibia 86.7037
lfoot -31.7122 37.6763
ltoes -18.3907
403
root 9.75529 12.4522 6.49731 -169.809 -1.19243 178.77
lowerback -3.92731 -2.61745 -5.85495
upperback 2.36726 -3.18449 -1.06787
thorax 4.92381 -1.78454 1.89751
lowerneck 3.57223 -2.41376 1.44186
upperneck 2.33874 -3.05231 -2.92207
head 0.0549274 -1.47105 -1.10056
rclavicle 2.54444e-014 4.05521e-014
rhumerus -44.5487 -19.7966 -73.721
rradius 25.4579
rwrist 13.0624
rhand -11.922 -57.0669
rfingers 7.12502
rthumb 14.1322 -86.5663
lclavicle 2.54444e-014 4.05521e-014
lhumerus -43.2807 -1.7759 78.3963
lradius 37.6307
lwrist 3.74405
lhand -39.3449 -13.4046
lfingers 7.12502
lthumb -12.3362 16.2115
rfemur -66.7112 5.59145 21.7985
rtibia 88.5153
rfoot -36.3169 38.2852
rtoes -33.6588
lfemur -67.5395 -3.77589 -19.1086
ltibia 88.977
lfoot -36.9321 49.6127
ltoes -21.0752
